<?xml version="1.0" encoding="UTF-8" standalone="no"?>
<!-- Generator: Adobe Illustrator 16.0.0, SVG Export Plug-In . SVG Version: 6.00 Build 0)  -->

<svg
   version="1.1"
   id="Layer_1"
   x="0px"
   y="0px"
   width="863.664px"
   height="555.652px"
   viewBox="0 0 863.664 555.652"
   enable-background="new 0 0 863.664 555.652"
   xml:space="preserve"
   sodipodi:docname="Back1.svg"
   xmlns:inkscape="http://www.inkscape.org/namespaces/inkscape"
   xmlns:sodipodi="http://sodipodi.sourceforge.net/DTD/sodipodi-0.dtd"
   xmlns="http://www.w3.org/2000/svg"
   xmlns:svg="http://www.w3.org/2000/svg"><defs
   id="defs131" /><sodipodi:namedview
   id="namedview129"
   pagecolor="#ffffff"
   bordercolor="#666666"
   borderopacity="1.0"
   inkscape:pageshadow="2"
   inkscape:pageopacity="0.0"
   inkscape:pagecheckerboard="0" />
<path
   fill-rule="evenodd"
   clip-rule="evenodd"
   fill="#A5A5A5"
   d="M863.652,469.418c0.001,3.396,0.001,6.791,0.002,10.185  c-19.92,1.038-39.84,2.053-59.758,3.12c-13.709,0.734-27.445,1.242-41.103,2.515c-3.604,0.337-7.902,2.343-10.265,4.947  c-9.503,10.473-3.262,27.963,10.629,31.31c10.487,2.527,20.882,1.391,31.403,0.237c12.817-1.406,25.695-2.399,38.575-3.08  c2.897-0.153,6.456,1.053,8.768,2.796c6.292,4.752,7.471,11.659,6.309,18.84c-1.085,6.691-6.379,9.632-12.52,11.297  c-5.351,1.45-10.776,2.641-16.168,3.946c-29.105,0.005-58.212,0.009-87.317,0.014c5.717-11.065,6.856-23.165,4.558-34.735  c-2.283-11.491-7.153-22.623-11.908-33.497c-3.418-7.82-12.708-8.695-19.131-2.647c-5.218,4.911-7.398,11.086-7.346,17.995  c0.05,6.476,0.057,12.971,0.597,19.416c0.395,4.703-1.135,8.417-5.124,10.66c-8.373,4.712-16.826,9.352-25.572,13.356  c-7.892,3.614-16.216,6.345-24.351,9.465c-73.245,0.011-146.49,0.022-219.734,0.032c-1.926-4.662,0.597-7.648,4.198-10.149  c1.55-1.076,3.217-2.01,4.892-2.898c10.027-5.32,20.391-4.959,31.154-2.241c17.746,4.481,35.266,10.416,53.868,10.6  c35.317,0.35,70.377-2.249,104.082-13.155c13.871-4.489,28.744-6.921,40.639-16.544c5.327-4.312,7.473-9.059,6.751-15.249  c-0.755-6.467-4.796-10.855-11.089-12.667c-9.904-2.853-19.847-5.928-30.007-7.546c-25.686-4.093-50.568-3.282-72.937,12.415  c-16.951,11.896-35.5,13.783-54.9,5.537c-2.044-0.869-4.119-1.733-6.263-2.314c-11.498-3.117-22.845-7.408-34.574-8.95  c-28.154-3.695-52.478,4.536-71.409,25.484c-9.941,11-12.013,23.819-7.585,37.686c-4.158,0.001-8.316,0.001-12.475,0.002  c-4.795-4.499-9.292-9.351-14.448-13.423c-11.933-9.425-25.758-10.068-39.819-6.075c-4.317,1.228-8.254,4.577-11.657,7.679  c-3.329,3.033-4.891,7.195-3.163,11.829c-5.117,0.001-10.235,0.001-15.353,0.002c-0.054-2.926-0.062-5.854-0.17-8.776  c-0.543-14.63-0.638-29.293-1.817-43.875c-0.989-12.233-7.227-18.629-19.598-21.457c-5.087-1.164-10.455-2.015-15.64-1.795  c-19.144,0.805-38.264,2.128-57.393,3.229c-13.076,0.754-26.177,1.217-39.215,2.357c-3.377,0.297-7.341,1.907-9.699,4.193  c-10.104,9.801-4.403,28.48,9.348,31.966c10.624,2.693,21.191,1.55,31.88,0.39c12.981-1.407,26.028-2.311,39.065-3.166  c5.919-0.388,9.86,2.909,12.606,7.713c6.218,10.877,1.839,21.746-10.393,25.269c-5.485,1.58-11.126,2.658-16.698,3.964  c-28.786,0.005-57.572,0.009-86.358,0.014c5.728-16.004,7.094-32.106,0.877-48.284c-2.382-6.203-4.931-12.36-7.722-18.401  c-4.385-9.491-14.54-10.798-21.487-2.854c-4.186,4.787-6.084,10.467-6.023,16.665c0.067,6.774,0.817,13.564,0.487,20.313  c-0.143,2.904-1.436,6.78-3.636,8.369c-6.329,4.569-13.081,8.827-20.229,12.039c-10.24,4.599-20.978,8.162-31.503,12.167  c-10.236,0.002-20.47,0.003-30.706,0.005c0-4.938-0.001-9.876-0.001-14.813c6.985-2.162,14.226-3.768,20.897-6.615  c9.778-4.176,20.929-5.012,29.35-12.78c5.045-4.651,7.716-9.248,6.759-15.681c-1.019-6.852-5.61-10.826-12.192-12.869  c-2.574-0.8-5.304-1.185-7.802-2.146c-11.899-4.581-24.384-5.86-37.02-6.388c0-8.024-0.002-16.049-0.003-24.073  c0.938,0.12,1.889,0.188,2.815,0.366c17.673,3.419,35.292,7.13,53.033,10.18c11.36,1.953,22.908,2.686,33.891-2.141  c7.039-3.094,11.878-8.18,11.877-15.913c-0.002-8.798-1.928-17.022-12.036-20.476c-2.846-0.972-5.714-1.993-8.661-2.561  c-9.542-1.835-19.074-3.841-28.705-5.099c-17.371-2.267-34.811-4.042-52.221-6.021c0-5.247-0.001-10.493-0.001-15.739  c1.56,1.047,2.984,2.433,4.705,3.085c8.899,3.372,17.774,6.848,26.847,9.738c13.143,4.187,19.551,1.118,24.789-11.224  c0.784-1.847,1.531-3.75,1.943-5.695c2.1-9.938,4.194-19.878,6.076-29.854c1.516-8.044-2.955-13.49-11.351-14.375  c-11.572-1.222-23.144-2.452-34.7-3.8c-9.843-1.146-14.466,2.697-15.406,12.318c-0.457,4.673-1.907,9.257-2.907,13.881  c-0.005-32.404-0.009-64.811-0.014-97.217c6.068-2.332,8.722-6.362,6.766-12.049c-1.656-4.817-4.469-9.265-6.77-13.875  c-0.001-9.567-0.003-19.135-0.004-28.702c1.039,1.317,2.097,2.621,3.113,3.954c5.016,6.569,9.285,13.855,15.187,19.569  c11.671,11.301,26.501,16.033,41.563,6.21c12.285-8.012,24.355-16.497,35.562-25.842c13.516-11.272,17.155-25.783,11.397-42.381  c-8.406-24.238-21.747-45.907-36.641-66.824c-4.149-5.828-7.766-12.007-11.699-17.978c-2.99-4.539-5.489-9.564-9.271-13.395  c-9.801-9.923-25.255-6.115-29.003,7.108c-1.134,3.997-1.048,8.63-0.278,12.756c2.236,11.979,9.306,21.841,16.16,31.72  c6.666,9.61,13.745,18.971,20.047,28.796c6.382,9.95,9.683,20.771,6.973,32.693c-3.465,15.252-14.42,18.989-26.92,9.086  c-1.354-1.072-2.764-2.181-3.782-3.53c-3.284-4.349-6.35-8.852-9.587-13.234c-7.583-10.267-15.216-20.498-22.83-30.742  c-0.001-6.173-0.002-12.345-0.003-18.518c4.804,6.892,9.434,13.905,14.461,20.642c5.301,7.103,10.735,14.145,16.612,20.802  c2.548,2.887,6.555,4.147,10.392,1.554c3.459-2.339,3.377-5.831,2.107-9.187c-7.232-19.104-16.462-37.158-31.599-51.692  c-3.235-3.107-7.946-4.783-11.977-7.117c0-8.95-0.002-17.9-0.003-26.85c11.033-4.763,22.689-8.538,32.936-14.55  C44.566,71.35,55.208,62.866,65.7,54.44c5.137-4.125,7.392-10.249,3.98-16.702c-3.361-6.357-9.63-8.217-16.26-7.136  c-6.517,1.063-12.972,3.061-19.138,5.417c-11.545,4.408-22.863,9.372-34.275,14.105c-0.001-8.333-0.002-16.666-0.003-24.999  c0.562-0.282,1.113-0.589,1.689-0.842C19.998,16.226,38.305,8.172,56.613,0.119c15.353-0.002,30.705-0.005,46.058-0.007  c-0.147,10.567,2.809,13.71,13.789,14.222c4.942,0.23,9.907-0.024,14.858,0.076c13.884,0.282,27.79,0.255,41.646,1.041  c26.532,1.504,53.019,2.503,79.415-1.531c9.878-1.509,18.132-5.75,23.97-13.833c15.353-0.002,30.705-0.004,46.058-0.007  c-1.439,2.879-2.509,6.007-4.381,8.596c-8.035,11.113-16.769,21.78-24.37,33.157c-9.009,13.482-14.059,28.36-12.457,44.698  c0.861,8.78,5.026,16.375,13.135,20.369c6.065,2.987,13.196,4.929,19.984,5.353c9.979,0.623,15.72-9.646,10.466-18.436  c-4.305-7.204-4.934-14.303-1.853-21.665c3.27-7.811,6.338-15.894,11.009-22.92c7.051-10.605,15.645-20.243,23.136-30.593  c4.255-5.879,7.62-12.358,11.386-18.565c35.184-0.005,70.366-0.01,105.549-0.016c2.726,4.683,4.853,9.825,8.288,13.958  c9.482,11.412,19.796,22.183,29.263,33.606c16.604,20.036,36.155,37.33,54.574,55.68c3.503,3.491,7.327,5.085,12.692,5  c8.853-0.144,15.831-4.011,23.027-8.099c8.497-4.826,16.915-10.011,25.967-13.653c17.169-6.909,32.566-16.277,46.392-28.124  c3.049-2.613,5.868-5.769,7.855-9.184c4.188-7.196,0.713-15.346-7.443-17.813c-2.958-0.896-6.465-1.509-9.379-0.848  c-6.783,1.541-13.516,3.554-19.983,6.062c-12.281,4.762-24.298,10.157-36.549,14.992c-8.257,3.258-16.984,4.226-25.875,3.337  c-13.146-1.314-23.241-8.487-32.278-16.839c-13.373-12.361-26.116-25.356-39.129-38.082c12.155-0.002,24.309-0.004,36.463-0.005  c-0.367,0.648-0.657,1.348-1.109,1.935c-6.624,8.616-5.547,18.095,2.933,25.058c6.071,4.986,13.213,7.484,21.1,7.795  c10.863,0.428,21.379-1.469,31.314-5.666c14.632-6.18,29.127-12.663,43.672-19.029c7.672-3.356,15.328-6.739,22.992-10.11  c15.353-0.002,30.705-0.004,46.058-0.007c0.124,0.913,0.34,1.825,0.356,2.739c0.133,6.742,2.618,9.898,9.538,10.973  c4.223,0.655,8.614,1.011,12.861,0.68c20.773-1.614,41.383,0.75,62.071,1.698c21.312,0.978,42.721,1.584,63.903-2.224  c0.001,5.864,0.002,11.728,0.003,17.592c-20.199-7.622-40.308-6.418-60.157,1.041c-22.592,8.489-35.988,44.312-11.449,65.4  c18.685,16.058,50.034,21.162,71.617,7.629c0.002,13.58,0.003,27.159,0.006,40.738c-18.7,27.376-33.748,56.629-46.37,86.965  c-3.085,7.414-2.925,16.262-3.282,24.492c-0.223,5.107,2.785,9.427,7.875,11.82c6.832,3.212,14.926-0.031,18.953-7.863  c2.408-4.685,4.097-9.714,6.512-14.394c5.305-10.283,10.866-20.443,16.322-30.653c0.002,14.506,0.005,29.011,0.007,43.516  c-15.037,11.569-25.428,26.191-29.97,44.252c-3.283,13.066,1.799,23.949,13.973,30.431c4.949,2.635,10.65,3.952,16.009,5.869  c0,5.864,0.001,11.728,0.002,17.591c-4.591,0.333-9.223,0.404-13.766,1.049c-12.714,1.806-25.132,4.639-35.449,12.643  c-14.169,10.992-12.526,29.157,3.645,37.14c6.015,2.97,12.695,4.938,19.295,6.485c8.646,2.027,17.514,3.187,26.285,4.718  c0.001,2.47,0.001,4.938,0.001,7.407c-1.896,0.077-3.788,0.19-5.684,0.229c-12.28,0.239-24.646-0.286-36.812,0.968  c-7.564,0.778-15.392,3.239-22.099,6.734c-9.946,5.183-9.345,15.972,0.557,21.22c3.459,1.833,7.272,3.461,11.12,4.118  C828.331,464.028,846.004,466.656,863.652,469.418z M182.429,317.35c-1.336-11.646-1.638-23.466-4.27-34.782  c-2.979-12.8-8.756-24.96-22.459-30.531c-13.003-5.287-26.583-8.801-41.016-7.479c-18.503,1.695-27.264,8.451-31.125,26.049  c-2.772,12.641-4.429,25.536-6,38.387c-3.016,24.649-5.741,49.334-8.329,74.03c-1.076,10.263-0.123,20.353,5.371,29.595  c7.807,13.133,23.703,13.415,31.17,0.043c3.184-5.701,5.279-12.345,6.192-18.78c3.143-22.144,5.359-44.409,8.316-66.58  c1.276-9.573,3.108-19.119,5.444-28.502c1.314-5.282,4.733-5.614,8.484-1.369c1.311,1.484,2.54,3.354,2.926,5.219  c1.029,4.955,2.338,10.025,2.169,15.007c-0.425,12.472-1.317,24.945-2.551,37.369c-1.854,18.68-2.216,37.244,2.35,55.643  c1.528,6.158,4.8,10.787,11.774,11.841c5.983,0.903,12.517-2.335,15.664-8.535c2.363-4.652,4.569-9.691,5.278-14.762  C175.617,372.04,178.922,344.801,182.429,317.35z M794.855,319.02c-1.103-11.764-1.126-23.445-3.526-34.653  c-2.813-13.123-8.194-25.869-22.024-31.935c-13.458-5.902-27.72-9.475-42.801-7.861c-17.885,1.915-25.863,8.618-30.313,25.358  c-0.634,2.384-1.219,4.806-1.516,7.246c-4.364,35.825-8.791,71.646-12.92,107.496c-1.091,9.482,0.363,18.784,5.206,27.351  c3.315,5.861,7.782,10.335,15.209,10.396c7.624,0.063,13.32-3.728,16.479-10.096c2.583-5.213,4.778-10.893,5.607-16.573  c3.026-20.758,5.44-41.598,8.018-62.414c1.454-11.747,1.019-23.79,6.077-34.958c2.093-4.619,4.51-5.175,8.088-1.475  c1.374,1.422,2.697,3.263,3.11,5.107c1.137,5.085,2.651,10.306,2.45,15.415c-0.552,14.163-1.622,28.323-3.007,42.438  c-1.64,16.714-1.192,33.278,2.454,49.697c1.76,7.929,6.186,12.271,12.451,12.931c6.282,0.664,12.764-2.913,15.953-9.719  c2.216-4.729,4.234-9.797,4.935-14.893C788.394,371.61,791.549,345.282,794.855,319.02z M735.388,63.386  c-7.409,9.029-14.606,18.229-22.277,27.047c-12.825,14.743-11.206,33.709,4.493,45.695c9.643,7.362,20.71,11.5,33.09,12.045  c6.386,0.281,12.801,0.216,19.155,0.787c9.467,0.851,15.447,6.123,17.749,15.003c1.761,6.796-1.737,15.772-6.914,17.744  c-6.684,2.546-17.328-0.595-21.646-6.217c-2.819-3.671-5.975-7.101-8.808-10.76c-3.022-3.902-6.809-5.56-11.697-4.04  c-4.346,1.351-6.979,5.298-7.128,10.516c-0.2,6.89,1.426,13.569,6.562,18.316c6.059,5.6,12.564,11.123,19.818,15.068  c17.914,9.74,35.01,4.882,50.15-6.018c16.853-12.131,25.548-29.019,20.934-49.356c-5.571-24.537-34.676-49.271-68.305-41.175  c-2.322,0.559-4.668,1.145-7.039,1.378c-3.652,0.359-5.051-1.725-3.318-4.814c0.677-1.207,1.752-2.201,2.524-3.367  c12.055-18.179,17.282-38.7,2.79-58.717c-8.241-11.385-27.134-22.036-44.617-9.647c-3.176,2.25-6.854,3.912-10.457,5.521  c-11.541,5.155-19.824,13.356-24.917,24.536c-5.27,11.572-2.203,19.958,9.297,25.9c9.523,4.921,12.48,4.347,19.377-3.94  C712.431,75.004,722.011,66.876,735.388,63.386z M122.617,63.558c-7.199,8.805-13.894,18.051-21.7,26.32  c-16.213,17.177-8.399,37.993,5.648,47.6c9.188,6.285,19.341,10.153,30.681,10.723c6.542,0.331,13.092,0.529,19.64,0.756  c11.721,0.409,16.667,9.084,18.305,16.635c1.37,6.321-2.498,14.543-7.316,16.256c-6.869,2.441-17.289-0.729-21.618-6.392  c-3.001-3.923-6.225-7.689-9.392-11.491c-2.8-3.359-6.488-4.545-10.707-3.291c-4.191,1.247-6.601,4.251-7.134,8.457  c-0.87,6.856,0.229,13.574,4.908,18.797c17.763,19.837,36.241,26.896,59.599,17.53c20.79-8.337,36.238-31.719,33.714-51.795  c-3.011-23.939-32.539-53.923-68.563-45.776c-2.487,0.563-4.962,1.282-7.487,1.544c-1.233,0.129-3.356-0.312-3.669-1.051  c-0.499-1.177-0.164-2.971,0.443-4.226c0.793-1.644,2.335-2.933,3.307-4.517c11.53-18.793,15.466-37.758,1.435-57.187  c-8.605-11.916-27.577-21.826-45.064-9.068c-3.133,2.286-6.917,3.794-10.517,5.424C76.246,43.735,68.377,51.54,63.34,61.97  c-5.879,12.176-3,20.6,9.008,27.113c8.772,4.757,12.392,4.103,18.726-3.542C99.374,75.522,108.928,67.123,122.617,63.558z   M425.96,203.403c-1.423-19.869-2.158-36.681-3.96-53.386c-1.758-16.311-11.568-27.327-28.02-30.854  c-13.636-2.925-27.751-4.305-41.729-5.045c-14.117-0.747-21.913,5.111-26.895,17.945c-1.226,3.156-2.092,6.49-2.689,9.814  c-2.693,14.974,6.661,26.988,22.409,28.544c5.543,0.548,11.171,0.373,16.762,0.366c6.962-0.007,9.8,1.373,11.636,7.892  c1.658,5.883,2.907,12.071,2.942,18.134c0.048,8.141-1.367,16.282-1.922,24.437c-0.512,7.525-4.813,12.374-11.632,15.004  c-4.392,1.693-9.2,2.438-13.867,3.396c-13.674,2.807-22.347,10.849-26.215,23.616c-2.963,9.784,1.397,18.568,11.449,21.93  c6.256,2.091,13.019,2.958,19.63,3.841c15.7,2.1,30.715-2.859,46.035-4.66c7.702-0.903,13.688-5.076,16.628-11.836  c3.184-7.321,6.533-15.018,7.3-22.783C425.442,233.378,425.426,216.85,425.96,203.403z M677.27,193.042  c-0.96,4.347-1.482,8.84-2.973,13.013c-3.497,9.803-11.789,13.03-20.736,7.25c-5.536-3.575-10.352-8.678-14.337-13.913  c-12.382-16.256-23.803-33.205-36.479-49.235c-4.396-5.56-10.974-9.846-17.279-13.577c-6.837-4.044-15.4-1.931-20.957,3.774  c-5.014,5.147-5.478,11.514-0.825,18.71c2.696,4.169,5.901,8.058,9.11,11.891c14.473,17.282,28.58,34.789,40.478,53.897  c4.919,7.898,10.147,15.875,16.628,22.555c12.325,12.701,27.633,17.45,44.206,6.539c10.943-7.205,21.623-14.848,31.88-22.933  c8.323-6.56,15.249-14.95,15.627-25.625c0.283-7.93-1.373-16.315-4.051-23.875c-7.172-20.25-18.567-38.509-30.725-56.33  c-6.135-8.995-11.881-18.236-17.848-27.337c-1.961-2.992-3.747-6.17-6.172-8.779c-4.532-4.879-10.252-7.307-17.199-5.808  c-6.75,1.457-10.914,5.808-12.734,11.955c-0.94,3.17-1.126,6.738-0.777,10.04c1.136,10.759,6.682,19.871,12.634,28.674  c6.721,9.943,13.893,19.603,20.742,29.466C671.693,172.34,676.537,181.817,677.27,193.042z M402.193,424.237  c-0.008,0.234-0.017,0.471-0.025,0.705c-3.193,0.001-6.387,0.005-9.58,0.002c-22.893-0.023-39.529,10.43-48.595,30.101  c-6.369,13.816-9.96,28.836-14.588,43.378c-0.778,2.447-0.75,5.204-0.708,7.813c0.152,9.233,4.89,20.113,19.211,20.408  c7.745,0.16,14.064-3.282,18.805-8.728c6.249-7.174,12.909-14.354,17.388-22.551c8.309-15.206,20.783-24.513,37.479-29.268  c2.294-0.655,4.473-1.816,6.801-2.203c3.244-0.54,6.682-1.184,9.854-0.688c5.647,0.879,11.232,2.353,16.715,3.982  c10.979,3.263,21.742,7.301,32.854,10.026c6.19,1.519,13.033,2.002,19.358,1.236c9.976-1.209,18.805-5.991,23.857-14.522  c3.146-5.309,4.806-11.844,5.492-17.998c0.925-8.287,0.451-16.932-6.934-22.999c-4.227-3.472-8.764-6.898-13.74-9.156  c-15.715-7.13-31.204-9.184-46.188,2.528c-10.325,8.07-22.701,11.099-35.939,10.308C423.195,425.982,412.698,425.04,402.193,424.237  z M483.104,245.729c-7.454,1.087-18.873,1.855-29.769,4.579c-12.628,3.158-15.998,15.935-7.745,25.746  c4.193,4.985,9.697,8.465,16.091,9.395c7.341,1.065,14.89,1.005,22.351,1.051c9.882,0.058,19.856-1.144,29.63-0.217  c17.575,1.665,32.561,8.946,43.002,23.177c8.261,11.258,6.031,21.735-6.39,28.379c-7.34,3.925-15.447,6.555-23.315,9.502  c-7.839,2.938-15.324,6.273-20.598,12.944c-6.142,7.769-7.244,17.943-1.571,25.001c7.104,8.837,16.996,13.568,28.657,12.646  c24.008-1.897,42.462-14.208,58.396-30.648c5.383-5.553,8.28-12.382,9.758-19.801c4.337-21.76-1.426-41.244-15.763-57.996  C560.316,259.664,526.155,247.358,483.104,245.729z M429.778,15.607c-38.583-0.503-61.011,14.382-71.203,41.883  c-3.9,10.526-4.071,21.047,2.165,30.771c7.34,11.447,18.376,18.976,31.31,23.237c12.668,4.174,24.052-6.166,20.786-18.712  c-1.304-5.006-4.226-10.188-7.915-13.896c-3.959-3.98-3.034-6.728-0.365-10.18c0.951-1.229,2.007-2.414,3.183-3.442  c12.798-11.188,31.386-12.808,46.278-4.423c11.21,6.312,20.582,14.627,28.978,23.991c12.615,14.072,27.675,25.971,38.626,41.571  c4.521,6.438,11.61,10.547,19.91,11.923c10.982,1.818,19.688-6.45,17-16.817c-1.243-4.793-3.705-9.63-6.811-13.568  c-7.729-9.805-15.616-19.593-24.407-28.5c-14.087-14.271-28.363-28.47-43.647-41.51C466.216,23.048,445.173,15.703,429.778,15.607z   M313.973,221.574c0.102,0.001,0.204,0.002,0.306,0.003c0.364-7.857,1.093-15.717,1.024-23.571  c-0.18-20.724-3.966-40.558-17.349-57.587c-11.102-14.128-27.926-15.182-40.208-2.038c-5.731,6.133-10.989,12.98-14.994,20.256  c-12.279,22.315-24.005,44.921-35.57,67.591c-2.574,5.043-4.266,10.718-5.174,16.283c-0.93,5.692-1.356,11.775-0.3,17.39  c2.038,10.836,13.123,14.349,21.729,7.231c2.439-2.018,4.385-4.882,5.806-7.709c6.62-13.165,12.919-26.479,19.45-39.684  c3.44-6.955,6.952-13.887,10.76-20.657c2.422-4.304,6.795-7.453,11.563-6.81c2.052,0.277,3.417,5.524,5.015,8.552  c0.35,0.664,0.433,1.488,0.514,2.25c0.931,8.732,2.083,17.451,2.691,26.206c0.867,12.491,1.752,24.949,6.302,36.827  c2.95,7.7,7.855,11.373,14.218,10.883c6.498-0.5,11.518-5.309,12.916-12.941c0.775-4.229,1.172-8.566,1.249-12.863  C314.097,241.317,313.974,231.445,313.973,221.574z M380.093,372.911c-9.129-0.435-17.965,0.415-25.871,5.279  c-6.877,4.229-7.608,11.41-1.592,16.648c17,14.802,48.16,16.843,67.466,4.426c6.557-4.218,13.193-6.06,21.16-2.974  c8.239,3.189,17.082,3.92,25.901,2.174c8.973-1.776,13.118-8.38,10.652-16.902c-2.49-8.605-7.956-15.207-16.098-19.263  c-8.215-4.092-16.917-7.265-25.211-11.218c-6.114-2.916-12.208-6.043-17.763-9.823c-4.415-3.003-4.924-7.64-2.164-11.43  c3.645-5.006,8.76-8.219,14.961-9.239c8.814-1.453,14.189,3.7,13.118,12.107c-0.606,4.77,1.535,8.822,5.923,11.202  c6.732,3.651,13.979,1.169,17.981-6.16c6.486-11.878,1.893-28.961-10.208-37.569c-10.266-7.306-21.978-10.555-34.591-10.621  c-18.533-0.098-35.452,9.891-41.381,24.963c-5.925,15.063-5.931,36.218,10.165,49.412c2.777,2.277,2.143,5.604-1.785,7.088  C387.453,372.26,383.667,372.323,380.093,372.911z M619.992,269.693c-0.178-0.77-0.18-2.452-0.925-3.73  c-3.805-6.529-7.176-13.415-11.855-19.323c-12.215-15.419-25.763-29.888-37.468-45.642c-33.728-45.39-73.359-85.407-116.812-122.065  c-2.751-2.319-5.749-4.465-8.926-6.189c-5.382-2.923-10.958-2.232-14.616,1.334c-3.663,3.572-4.138,8.766-1.041,14.114  c1.238,2.138,2.798,4.135,4.419,6.031c13.42,15.702,26.707,31.512,40.38,47.006c27.868,31.58,55.902,63.021,83.965,94.438  c11.362,12.72,22.8,25.387,34.6,37.725c3.021,3.157,7.256,5.744,11.451,7.234C611.143,283.462,619.927,277.772,619.992,269.693z   M225.206,26.817c-15.43,0.04-24.765,1.988-34.243,5.572c-21.373,8.084-31.067,38.867-19.899,55.832  c15.901,24.154,55.51,33.072,80.207,17.146c27.987-18.051,29.632-52.485,3.446-71.032C245.413,27.744,234.813,26.466,225.206,26.817  z M261.36,357.165c-6.287,0.593-15.715,1.156-25.038,2.44c-12.756,1.753-25.141,4.836-35.331,13.114  c-11.196,9.096-12.128,23.694-1.331,32.731c4.545,3.804,10.554,6.824,16.401,8.186c24.275,5.655,48.879,9.637,73.986,9.187  c10.688-0.191,20.951-2.548,30.154-8.069c11.576-6.947,15.611-19.478,8.901-30.871c-3.193-5.421-8.004-10.577-13.332-14.085  C300.424,359.691,282.662,357.399,261.36,357.165z M325.415,337.696c0.815,0,2.578-0.089,4.328,0.015  c5.882,0.351,6.77,1.484,5.567,6.912c-1.063,4.797,0.941,9.36,5.044,11.487c4.282,2.219,9.523,1.317,13.017-2.578  c5.374-5.99,8.596-13.018,9.34-20.902c1.166-12.391-6.5-22.171-19.214-24.144c-5.15-0.798-10.554-0.965-15.741-0.458  c-11.424,1.117-22.762,3.027-34.175,4.271c-9.515,1.038-13.293-1.153-17.471-9.465c-1.176-2.338-2.026-4.855-2.792-7.357  c-3.438-11.228-2.599-22.558-0.813-33.925c1.002-6.385-1.473-10.787-6.568-12.22c-5.679-1.597-10.901,1.301-13.662,7.345  c-0.737,1.613-1.854,3.196-3.178,4.406c-8.763,8.011-16.524,16.791-21.908,27.266c-2.4,4.668-4.508,9.589-5.879,14.616  c-4.036,14.803,2.152,26.881,16.436,33.567c14.351,6.717,29.492,5.881,44.688,4.692C296.451,340.127,310.46,338.927,325.415,337.696  z M582.449,416.295c-5.562,0.369-12.113,0.581-18.605,1.303c-5.823,0.646-10.377,3.523-11.817,9.306  c-1.451,5.826,1.325,10.489,6.311,13.361c5.998,3.456,12.237,6.751,18.77,9.069c32.367,11.485,65.944,18.306,100.094,22.178  c7.948,0.901,16.563-0.677,24.407-2.75c7.712-2.04,12.562-8.026,12.855-16.146c0.397-11.011-3.387-16.921-12.65-20.654  c-2.484-1.002-5.132-1.731-7.776-2.24c-7.826-1.505-15.704-2.755-23.531-4.248C641.753,419.987,612.651,417.713,582.449,416.295z   M239.171,427.092c-9.509,0.547-21.247,0.442-32.693,2.154c-7.5,1.121-15.239,3.843-21.681,7.698  c-8.092,4.843-7.15,14.493,1.001,19.369c2.942,1.76,6.246,3.307,9.599,4.017c11.833,2.504,23.68,5.159,35.666,6.739  c22.439,2.958,44.941,6.861,67.679,4.017c7.904-0.987,16.164-3.029,23.102-6.654c11.219-5.864,10.236-18.844-1.034-24.605  c-1.125-0.575-2.265-1.219-3.48-1.524c-9.097-2.286-18.096-5.335-27.351-6.54C273.865,429.664,257.588,428.716,239.171,427.092z   M462.144,236.139c9.693-0.412,22.955-1.914,35.056-8.374c9.383-5.01,15.073-12.7,17.484-22.625  c2.427-9.983-4.612-18.351-15.165-17.221c-5.18,0.555-10.185,3.166-15.107,5.207c-3.493,1.449-6.605,3.76-10.112,5.166  c-1.515,0.607-3.595-0.097-5.418-0.206c0.24-1.716,0.063-3.623,0.802-5.108c1.925-3.868,4.786-7.362,6.3-11.349  c2.848-7.493,0.762-14.358-4.891-19.991c-5.39-5.373-12.12-5.785-19.098-3.528c-8.156,2.638-13.024,8.302-14.365,16.397  c-2.041,12.314-4.079,24.651-5.403,37.05C430.461,228.089,440.835,237.669,462.144,236.139z M609.979,392.607  c-0.124,6.832,1.914,11.204,7.342,13.251c9.812,3.699,19.646,7.392,29.651,10.55c9.366,2.955,15.691,0.184,20.261-8.245  c1.469-2.711,2.8-5.614,3.469-8.582c2.371-10.524,4.616-21.082,6.54-31.691c1.303-7.184-3.321-12.468-11.107-13.354  c-12.369-1.41-24.742-2.804-37.118-4.153c-6.869-0.748-11.722,2.91-12.931,9.522c-1.299,7.114-2.702,14.211-4.036,21.321  C611.254,385.468,610.503,389.719,609.979,392.607z M616.929,303.639c-0.068,19.448,19.689,34.749,40.836,31.624  c11.211-1.657,19.741-8.985,22.161-19.04c2.471-10.251-1.979-22.863-10.735-28.289c-5.189-3.216-10.842-6.076-16.688-7.906  C633.325,274.022,616.993,285.069,616.929,303.639z M33.047,278.652c-16.433-0.181-26.025,7.501-28.321,20.108  c-3.844,21.115,16.632,39.855,39.971,36.639c10.804-1.488,18.575-7.021,21.828-16.969c3.349-10.238,1.399-20.353-6.833-27.73  C51.531,283.386,41.379,279.056,33.047,278.652z M657.019,181.327c-0.326-1.083-0.706-2.905-1.417-4.597  c-1.74-4.135-3.942-8.11-5.408-12.327c-5.324-15.321-15.9-27.263-26.644-39.105c-1.234-1.361-2.924-2.384-4.527-3.372  c-4.005-2.465-8.188-3.747-12.408-0.518c-3.305,2.526-3.854,6.481-0.937,11.814c2.747,5.019,6.116,9.737,9.421,14.452  c7.861,11.222,15.675,22.484,23.897,33.458c2.145,2.86,5.415,5.32,8.714,6.899C652.301,190.226,656.848,186.975,657.019,181.327z   M758.361,440.019c-8.496,0.057-16.24,6.698-16.279,13.964c-0.047,8.421,8.194,15.962,17.293,15.823  c7.799-0.119,15.016-7.263,14.853-14.703C774.057,447.309,766.333,439.965,758.361,440.019z M146.578,469.861  c7.931-0.042,14.991-6.931,14.912-14.548c-0.083-7.84-7.619-15.161-15.653-15.206c-8.368-0.047-16.26,6.646-16.317,13.837  C129.45,462.525,137.367,469.912,146.578,469.861z M496.626,333.059c-0.302,0.259-0.604,0.519-0.905,0.778  c-1.647,0.515-3.742,0.58-4.864,1.62c-5.369,4.983-10.846,9.939-15.542,15.49c-2.973,3.516-1.709,8.8,1.544,11.794  c3.389,3.12,8.833,4.025,12.743,0.972c5.287-4.126,10.192-8.818,14.669-13.766c2.766-3.057,3.142-7.449,0.494-10.765  C502.73,336.637,499.386,335.065,496.626,333.059z M519.839,332.652c6.727,0.068,14.503-7.532,14.441-14.116  c-0.055-5.963-6.315-11.201-13.416-11.224c-7.478-0.023-13.646,5.554-13.836,12.511  C506.838,326.723,512.687,332.581,519.839,332.652z M790.35,534.056c-3.824,0.395-6.872,0.518-9.833,1.063  c-3.498,0.645-6.634,2.237-6.426,6.231c0.205,3.989,3.531,5.527,7.027,5.615c9.566,0.239,19.156,0.354,28.702-0.128  c2.253-0.113,5.728-2.414,6.255-4.323c0.969-3.507-2.655-4.919-5.681-5.451C803.502,535.849,796.548,534.966,790.35,534.056z   M182.103,547.175c0.001-0.085,0.002-0.169,0.003-0.254c5.413-0.001,10.87,0.385,16.212-0.208c1.909-0.212,4.478-2.556,4.959-4.367  c0.317-1.195-2.291-4.233-4.037-4.637c-10.234-2.362-20.595-4.426-31.214-2.549c-3.478,0.615-6.719,2.123-6.61,6.098  c0.114,4.229,3.592,5.619,7.294,5.853C173.157,547.39,177.637,547.175,182.103,547.175z M554.901,484.253  c6.61,0.036,12.673-5.648,12.729-11.93c0.053-6.07-5.502-10.963-12.328-10.86c-6.366,0.095-11.786,5.401-11.83,11.582  C543.43,479.246,548.5,484.217,554.901,484.253z M740.795,228.362c0.055,5.621,4.957,10.183,10.805,10.057  c6.082-0.13,12.668-6.461,12.775-12.28c0.1-5.451-5.134-10.149-11.343-10.182C746.724,215.923,740.731,221.998,740.795,228.362z   M140.603,216.063c-6.333-0.123-12.515,5.879-12.523,12.16c-0.008,5.627,4.814,10.321,10.613,10.328  c6.11,0.007,12.693-6.145,12.933-12.086C151.852,220.857,146.899,216.185,140.603,216.063z M353.144,218.479  c6.109,0.043,11.135-4.865,11.161-10.901c0.025-5.827-4.522-10.437-10.341-10.481c-5.977-0.046-11.265,5.356-11.236,11.479  C342.752,214.007,347.414,218.438,353.144,218.479z M804.09,346.946c-0.023,5.797,4.63,10.237,10.679,10.192  c5.857-0.044,10.78-4.949,10.854-10.818c0.07-5.647-4.388-10.144-10.122-10.21C809.409,336.039,804.114,341.067,804.09,346.946z   M212.987,346.447c0.043-5.838-4.536-10.314-10.47-10.236c-5.994,0.078-11.219,5.232-11.175,11.021  c0.04,5.404,4.743,9.963,10.354,10.037C207.76,357.347,212.944,352.38,212.987,346.447z"
   id="path2" />
<path
   fill-rule="evenodd"
   clip-rule="evenodd"
   fill="#3D3D3D"
   d="M381.018,555.596c-4.428-13.866-2.356-26.686,7.585-37.686  c18.931-20.948,43.255-29.18,71.409-25.484c11.729,1.542,23.076,5.833,34.574,8.95c2.144,0.581,4.219,1.445,6.263,2.314  c19.4,8.246,37.949,6.359,54.9-5.537c22.368-15.697,47.251-16.508,72.937-12.415c10.16,1.618,20.103,4.693,30.007,7.546  c6.293,1.812,10.334,6.2,11.089,12.667c0.722,6.19-1.424,10.938-6.751,15.249c-11.895,9.623-26.768,12.055-40.639,16.544  c-33.705,10.906-68.765,13.505-104.082,13.155c-18.603-0.184-36.122-6.118-53.868-10.6c-10.764-2.718-21.127-3.079-31.154,2.241  c-1.675,0.889-3.342,1.822-4.892,2.898c-3.602,2.501-6.125,5.487-4.198,10.149C409.804,555.591,395.411,555.594,381.018,555.596z"
   id="path4" />
<path
   fill-rule="evenodd"
   clip-rule="evenodd"
   fill="#3D3D3D"
   d="M0.024,163.082c7.613,10.244,15.247,20.476,22.83,30.742  c3.237,4.383,6.303,8.885,9.587,13.234c1.019,1.349,2.428,2.458,3.782,3.53c12.5,9.903,23.455,6.166,26.92-9.086  c2.71-11.921-0.59-22.743-6.973-32.693c-6.302-9.826-13.381-19.187-20.047-28.796c-6.854-9.879-13.924-19.742-16.16-31.72  c-0.77-4.126-0.855-8.76,0.278-12.756c3.748-13.223,19.202-17.031,29.003-7.108c3.782,3.83,6.281,8.855,9.271,13.395  c3.934,5.971,7.55,12.15,11.699,17.978c14.894,20.917,28.235,42.586,36.641,66.824c5.757,16.598,2.119,31.109-11.397,42.381  c-11.207,9.345-23.276,17.83-35.562,25.842c-15.062,9.822-29.892,5.091-41.563-6.21c-5.902-5.714-10.171-13-15.187-19.569  c-1.017-1.333-2.075-2.637-3.113-3.954C0.03,204.437,0.027,183.759,0.024,163.082z"
   id="path6" />
<path
   fill-rule="evenodd"
   clip-rule="evenodd"
   fill="#3D3D3D"
   d="M511.433,0.052c13.013,12.725,25.756,25.72,39.129,38.082  c9.037,8.352,19.133,15.525,32.278,16.839c8.891,0.889,17.618-0.079,25.875-3.337c12.251-4.834,24.268-10.23,36.549-14.992  c6.468-2.508,13.2-4.521,19.983-6.062c2.914-0.661,6.421-0.047,9.379,0.848c8.156,2.467,11.631,10.617,7.443,17.813  c-1.987,3.415-4.807,6.571-7.855,9.184c-13.825,11.846-29.223,21.214-46.392,28.124c-9.052,3.642-17.47,8.827-25.967,13.653  c-7.196,4.088-14.175,7.956-23.027,8.099c-5.365,0.085-9.189-1.509-12.692-5c-18.419-18.35-37.971-35.644-54.574-55.68  c-9.467-11.423-19.78-22.194-29.263-33.606c-3.436-4.133-5.563-9.276-8.288-13.958C486.485,0.056,498.959,0.054,511.433,0.052z"
   id="path8" />
<path
   fill-rule="evenodd"
   clip-rule="evenodd"
   fill="#3D3D3D"
   d="M206.381,555.621c5.571-1.306,11.212-2.384,16.698-3.964  c12.232-3.522,16.61-14.392,10.393-25.269c-2.746-4.804-6.687-8.101-12.606-7.713c-13.038,0.855-26.084,1.759-39.065,3.166  c-10.689,1.16-21.256,2.304-31.88-0.39c-13.751-3.485-19.452-22.165-9.348-31.966c2.358-2.286,6.322-3.896,9.699-4.193  c13.038-1.141,26.139-1.604,39.215-2.357c19.129-1.101,38.249-2.424,57.393-3.229c5.186-0.22,10.553,0.631,15.64,1.795  c12.371,2.828,18.608,9.224,19.598,21.457c1.179,14.582,1.274,29.245,1.817,43.875c0.108,2.923,0.116,5.851,0.17,8.776  C258.197,555.613,232.289,555.617,206.381,555.621z"
   id="path10" />
<path
   fill-rule="evenodd"
   clip-rule="evenodd"
   fill="#3D3D3D"
   d="M863.599,105.55c-21.583,13.532-52.933,8.428-71.617-7.629  c-24.539-21.089-11.143-56.912,11.449-65.4c19.85-7.458,39.958-8.663,60.157-1.041C863.591,56.17,863.595,80.859,863.599,105.55z   M835.631,53.927c-3.793,1.138-7.425,1.803-10.644,3.294c-4.734,2.195-5.267,4.487-2.894,8.914  c5.438,10.152,19.375,11.498,26.526,7.427c2.656-1.511,4.845-5.538,5.117-8.595c0.192-2.155-2.714-5.47-5.107-6.734  C844.693,56.152,840.051,55.314,835.631,53.927z"
   id="path12" />
<path
   fill-rule="evenodd"
   clip-rule="evenodd"
   fill="#3D3D3D"
   d="M819.525,555.531c5.392-1.306,10.817-2.496,16.168-3.946  c6.141-1.665,11.435-4.605,12.52-11.297c1.162-7.181-0.017-14.088-6.309-18.84c-2.312-1.743-5.87-2.949-8.768-2.796  c-12.88,0.681-25.758,1.674-38.575,3.08c-10.521,1.153-20.916,2.29-31.403-0.237c-13.891-3.347-20.132-20.837-10.629-31.31  c2.362-2.604,6.661-4.61,10.265-4.947c13.657-1.272,27.394-1.78,41.103-2.515c19.918-1.067,39.838-2.082,59.758-3.12  c0.003,25.209,0.006,50.417,0.01,75.922C848.952,555.527,834.239,555.529,819.525,555.531z"
   id="path14" />
<path
   fill-rule="evenodd"
   clip-rule="evenodd"
   fill="#3D3D3D"
   d="M368.462,0.073c-3.766,6.208-7.131,12.687-11.386,18.565  c-7.492,10.35-16.085,19.988-23.136,30.593c-4.671,7.026-7.74,15.109-11.009,22.92c-3.082,7.361-2.453,14.461,1.853,21.665  c5.254,8.791-0.487,19.059-10.466,18.436c-6.789-0.424-13.919-2.366-19.984-5.353c-8.109-3.995-12.274-11.589-13.135-20.369  c-1.603-16.337,3.447-31.215,12.457-44.698c7.601-11.376,16.334-22.044,24.37-33.157c1.872-2.589,2.941-5.717,4.381-8.596  C337.757,0.078,353.109,0.075,368.462,0.073z"
   id="path16" />
<path
   fill-rule="evenodd"
   clip-rule="evenodd"
   fill="#3D3D3D"
   d="M0.061,418.623c17.411,1.979,34.851,3.755,52.221,6.021  c9.631,1.258,19.162,3.264,28.705,5.099c2.947,0.567,5.815,1.589,8.661,2.561c10.108,3.453,12.033,11.678,12.036,20.476  c0.001,7.733-4.838,12.819-11.877,15.913c-10.983,4.826-22.531,4.094-33.891,2.141c-17.741-3.05-35.36-6.761-53.033-10.18  c-0.926-0.179-1.876-0.246-2.815-0.366C0.065,446.399,0.063,432.511,0.061,418.623z"
   id="path18" />
<path
   fill-rule="evenodd"
   clip-rule="evenodd"
   fill="#3D3D3D"
   d="M0.055,376.958c1-4.624,2.451-9.208,2.907-13.881  c0.94-9.621,5.563-13.465,15.406-12.318c11.556,1.348,23.128,2.578,34.7,3.8c8.396,0.885,12.866,6.331,11.351,14.375  c-1.882,9.977-3.976,19.917-6.076,29.854c-0.412,1.945-1.159,3.849-1.943,5.695c-5.238,12.342-11.646,15.41-24.789,11.224  c-9.072-2.891-17.948-6.366-26.847-9.738c-1.721-0.652-3.146-2.038-4.705-3.085C0.058,394.241,0.057,385.599,0.055,376.958z"
   id="path20" />
<path
   fill-rule="evenodd"
   clip-rule="evenodd"
   fill="#3D3D3D"
   d="M863.614,216.654c-5.456,10.21-11.018,20.371-16.322,30.653  c-2.415,4.68-4.104,9.709-6.512,14.394c-4.027,7.832-12.121,11.075-18.953,7.863c-5.09-2.394-8.098-6.713-7.875-11.82  c0.357-8.229,0.197-17.078,3.282-24.492c12.622-30.336,27.67-59.588,46.37-86.965C863.607,169.743,863.61,193.199,863.614,216.654z"
   id="path22" />
<path
   fill-rule="evenodd"
   clip-rule="evenodd"
   fill="#3D3D3D"
   d="M643.931,555.557c8.135-3.12,16.459-5.851,24.351-9.465  c8.746-4.005,17.199-8.645,25.572-13.356c3.989-2.243,5.519-5.957,5.124-10.66c-0.54-6.445-0.547-12.94-0.597-19.416  c-0.053-6.909,2.128-13.084,7.346-17.995c6.423-6.048,15.713-5.173,19.131,2.647c4.755,10.874,9.625,22.006,11.908,33.497  c2.299,11.57,1.159,23.67-4.558,34.735C702.781,555.548,673.356,555.553,643.931,555.557z"
   id="path24" />
<path
   fill-rule="evenodd"
   clip-rule="evenodd"
   fill="#3D3D3D"
   d="M30.787,555.647c10.525-4.005,21.263-7.568,31.503-12.167  c7.149-3.212,13.901-7.47,20.229-12.039c2.201-1.589,3.494-5.465,3.636-8.369c0.331-6.748-0.419-13.538-0.487-20.313  c-0.062-6.198,1.837-11.878,6.023-16.665c6.947-7.943,17.102-6.637,21.487,2.854c2.791,6.041,5.339,12.198,7.722,18.401  c6.217,16.178,4.851,32.28-0.877,48.284C90.277,555.639,60.532,555.642,30.787,555.647z"
   id="path26" />
<path
   fill-rule="evenodd"
   clip-rule="evenodd"
   fill="#3D3D3D"
   d="M668.797,0.029c-7.664,3.371-15.32,6.753-22.992,10.11  c-14.545,6.367-29.04,12.85-43.672,19.029c-9.936,4.196-20.451,6.094-31.314,5.666c-7.887-0.311-15.028-2.809-21.1-7.795  c-8.479-6.963-9.557-16.441-2.933-25.058c0.452-0.587,0.742-1.287,1.109-1.935C588.195,0.041,628.497,0.035,668.797,0.029z"
   id="path28" />
<path
   fill-rule="evenodd"
   clip-rule="evenodd"
   fill="#3D3D3D"
   d="M0.007,50.125c11.413-4.733,22.73-9.698,34.275-14.105  c6.166-2.355,12.621-4.354,19.138-5.417c6.63-1.081,12.899,0.779,16.26,7.136c3.412,6.453,1.157,12.577-3.98,16.702  c-10.492,8.425-21.134,16.91-32.751,23.725c-10.247,6.012-21.903,9.787-32.936,14.55C0.011,78.518,0.009,64.321,0.007,50.125z"
   id="path30" />
<path
   fill-rule="evenodd"
   clip-rule="evenodd"
   fill="#3D3D3D"
   d="M863.645,420.347c-8.771-1.531-17.639-2.69-26.285-4.718  c-6.6-1.548-13.28-3.516-19.295-6.485c-16.171-7.982-17.813-26.147-3.645-37.14c10.317-8.004,22.735-10.837,35.449-12.643  c4.543-0.645,9.175-0.716,13.766-1.049c0.002,8.951,0.003,17.901,0.005,26.851c-11.51-0.353-23.173-1.918-35.14,3.957  c11.984,4.953,23.588,4.978,35.141,5.302C863.642,403.064,863.644,411.706,863.645,420.347z"
   id="path32" />
<path
   fill-rule="evenodd"
   clip-rule="evenodd"
   fill="#3D3D3D"
   d="M276.347,0.086c-5.838,8.083-14.092,12.324-23.97,13.833  c-26.396,4.034-52.883,3.035-79.415,1.531c-13.855-0.786-27.761-0.759-41.646-1.041c-4.951-0.1-9.916,0.154-14.858-0.076  c-10.979-0.511-13.936-3.654-13.789-14.222C160.562,0.104,218.455,0.095,276.347,0.086z"
   id="path34" />
<path
   fill-rule="evenodd"
   clip-rule="evenodd"
   fill="#3D3D3D"
   d="M863.652,469.418c-17.648-2.763-35.321-5.391-52.924-8.396  c-3.848-0.657-7.661-2.285-11.12-4.118c-9.901-5.248-10.503-16.037-0.557-21.22c6.707-3.495,14.534-5.956,22.099-6.734  c12.166-1.254,24.531-0.729,36.812-0.968c1.896-0.038,3.788-0.151,5.684-0.229C863.648,441.642,863.65,455.53,863.652,469.418z"
   id="path36" />
<path
   fill-rule="evenodd"
   clip-rule="evenodd"
   fill="#3D3D3D"
   d="M0.071,484.36c12.636,0.527,25.121,1.807,37.02,6.388  c2.499,0.961,5.228,1.346,7.802,2.146c6.582,2.043,11.173,6.018,12.192,12.869c0.957,6.433-1.714,11.029-6.759,15.681  c-8.42,7.769-19.572,8.604-29.35,12.78c-6.671,2.848-13.912,4.453-20.897,6.615C0.077,522.011,0.074,503.186,0.071,484.36z"
   id="path38" />
<path
   fill-rule="evenodd"
   clip-rule="evenodd"
   fill="#3D3D3D"
   d="M863.585,13.888c-21.183,3.808-42.592,3.202-63.903,2.224  c-20.688-0.948-41.298-3.313-62.071-1.698c-4.247,0.331-8.639-0.025-12.861-0.68c-6.92-1.075-9.405-4.231-9.538-10.973  c-0.017-0.914-0.232-1.826-0.356-2.739C764.432,0.015,814.007,0.007,863.583,0C863.584,4.629,863.584,9.259,863.585,13.888z"
   id="path40" />
<path
   fill-rule="evenodd"
   clip-rule="evenodd"
   fill="#3D3D3D"
   d="M863.633,340.722c-5.358-1.917-11.06-3.234-16.009-5.869  c-12.174-6.481-17.256-17.364-13.973-30.431c4.542-18.061,14.933-32.683,29.97-44.252  C863.626,287.021,863.63,313.872,863.633,340.722z"
   id="path42" />
<path
   fill-rule="evenodd"
   clip-rule="evenodd"
   fill="#A5A5A5"
   d="M0.017,119.565c4.031,2.334,8.742,4.01,11.977,7.117  c15.137,14.534,24.367,32.589,31.599,51.692c1.27,3.356,1.352,6.848-2.107,9.187c-3.837,2.594-7.844,1.333-10.392-1.554  c-5.877-6.657-11.311-13.699-16.612-20.802c-5.027-6.737-9.657-13.75-14.461-20.642C0.02,136.231,0.019,127.898,0.017,119.565z"
   id="path44" />
<path
   fill-rule="evenodd"
   clip-rule="evenodd"
   fill="#3D3D3D"
   d="M299.457,555.608c-1.728-4.634-0.166-8.796,3.163-11.829  c3.403-3.102,7.339-6.451,11.657-7.679c14.061-3.993,27.886-3.35,39.819,6.075c5.157,4.072,9.653,8.924,14.448,13.423  C345.515,555.602,322.485,555.605,299.457,555.608z"
   id="path46" />
<path
   fill-rule="evenodd"
   clip-rule="evenodd"
   fill="#3D3D3D"
   d="M56.613,0.119C38.305,8.172,19.998,16.226,1.693,24.284  c-0.577,0.253-1.127,0.56-1.689,0.842C0.002,16.793,0.001,8.46,0,0.127C18.871,0.125,37.741,0.122,56.613,0.119z"
   id="path48" />
<path
   fill-rule="evenodd"
   clip-rule="evenodd"
   fill="#3D3D3D"
   d="M863.641,394.422c-11.553-0.324-23.156-0.349-35.141-5.302  c11.967-5.875,23.63-4.31,35.14-3.957C863.64,388.25,863.641,391.336,863.641,394.422z"
   id="path50" />
<path
   fill-rule="evenodd"
   clip-rule="evenodd"
   fill="#3D3D3D"
   d="M0.037,253.817c2.301,4.61,5.114,9.058,6.77,13.875  c1.956,5.687-0.698,9.717-6.766,12.049C0.04,271.1,0.039,262.458,0.037,253.817z"
   id="path52" />
<path
   fill-rule="evenodd"
   clip-rule="evenodd"
   fill="#3D3D3D"
   d="M182.429,317.35c-3.506,27.451-6.812,54.689-10.61,81.862  c-0.709,5.07-2.916,10.109-5.278,14.762c-3.147,6.2-9.681,9.438-15.664,8.535c-6.974-1.054-10.246-5.683-11.774-11.841  c-4.566-18.398-4.205-36.963-2.35-55.643c1.234-12.424,2.126-24.897,2.551-37.369c0.169-4.981-1.14-10.052-2.169-15.007  c-0.387-1.864-1.615-3.734-2.926-5.219c-3.751-4.245-7.17-3.913-8.484,1.369c-2.336,9.383-4.168,18.929-5.444,28.502  c-2.957,22.171-5.174,44.437-8.316,66.58c-0.914,6.436-3.009,13.079-6.192,18.78c-7.467,13.372-23.363,13.09-31.17-0.043  c-5.494-9.242-6.447-19.332-5.371-29.595c2.588-24.696,5.313-49.381,8.329-74.03c1.571-12.851,3.227-25.746,6-38.387  c3.862-17.598,12.622-24.354,31.125-26.049c14.434-1.323,28.013,2.192,41.016,7.479c13.703,5.571,19.48,17.731,22.459,30.531  C180.791,293.884,181.092,305.705,182.429,317.35z"
   id="path54" />
<path
   fill-rule="evenodd"
   clip-rule="evenodd"
   fill="#3D3D3D"
   d="M794.855,319.02c-3.307,26.262-6.462,52.59-10.069,78.859  c-0.7,5.096-2.719,10.163-4.935,14.893c-3.189,6.806-9.671,10.383-15.953,9.719c-6.266-0.66-10.691-5.002-12.451-12.931  c-3.646-16.419-4.094-32.983-2.454-49.697c1.385-14.114,2.455-28.274,3.007-42.438c0.201-5.109-1.313-10.33-2.45-15.415  c-0.413-1.845-1.736-3.686-3.11-5.107c-3.578-3.7-5.995-3.145-8.088,1.475c-5.059,11.168-4.623,23.211-6.077,34.958  c-2.577,20.816-4.991,41.656-8.018,62.414c-0.829,5.681-3.024,11.36-5.607,16.573c-3.159,6.368-8.855,10.159-16.479,10.096  c-7.427-0.062-11.894-4.535-15.209-10.396c-4.843-8.566-6.297-17.868-5.206-27.351c4.129-35.851,8.556-71.671,12.92-107.496  c0.297-2.44,0.882-4.862,1.516-7.246c4.45-16.74,12.429-23.443,30.313-25.358c15.081-1.614,29.343,1.958,42.801,7.861  c13.83,6.065,19.212,18.812,22.024,31.935C793.729,295.575,793.753,307.256,794.855,319.02z"
   id="path56" />
<path
   fill-rule="evenodd"
   clip-rule="evenodd"
   fill="#3D3D3D"
   d="M735.388,63.386c-13.377,3.491-22.957,11.619-31.184,21.504  c-6.896,8.287-9.854,8.861-19.377,3.94c-11.5-5.942-14.566-14.329-9.297-25.9c5.093-11.18,13.376-19.38,24.917-24.536  c3.603-1.609,7.281-3.272,10.457-5.521c17.483-12.389,36.376-1.738,44.617,9.647c14.492,20.017,9.265,40.539-2.79,58.717  c-0.772,1.166-1.848,2.16-2.524,3.367c-1.732,3.089-0.334,5.173,3.318,4.814c2.371-0.234,4.717-0.82,7.039-1.378  c33.629-8.096,62.733,16.638,68.305,41.175c4.614,20.337-4.081,37.225-20.934,49.356c-15.141,10.899-32.236,15.757-50.15,6.018  c-7.254-3.945-13.76-9.468-19.818-15.068c-5.136-4.747-6.762-11.426-6.562-18.316c0.149-5.217,2.782-9.165,7.128-10.516  c4.889-1.52,8.675,0.138,11.697,4.04c2.833,3.659,5.988,7.089,8.808,10.76c4.317,5.623,14.962,8.763,21.646,6.217  c5.177-1.972,8.675-10.948,6.914-17.744c-2.302-8.88-8.282-14.152-17.749-15.003c-6.354-0.57-12.77-0.505-19.155-0.787  c-12.38-0.545-23.447-4.683-33.09-12.045c-15.699-11.986-17.318-30.952-4.493-45.695C720.781,81.615,727.979,72.415,735.388,63.386z  "
   id="path58" />
<path
   fill-rule="evenodd"
   clip-rule="evenodd"
   fill="#3D3D3D"
   d="M122.617,63.558c-13.689,3.565-23.244,11.964-31.543,21.982  c-6.334,7.645-9.954,8.299-18.726,3.542C60.341,82.57,57.461,74.146,63.34,61.97c5.037-10.43,12.906-18.234,23.787-23.162  c3.599-1.63,7.383-3.138,10.517-5.424c17.487-12.758,36.459-2.847,45.064,9.068c14.031,19.429,10.095,38.394-1.435,57.187  c-0.972,1.584-2.514,2.873-3.307,4.517c-0.606,1.254-0.942,3.049-0.443,4.226c0.313,0.739,2.436,1.18,3.669,1.051  c2.525-0.263,5-0.981,7.487-1.544c36.024-8.147,65.552,21.837,68.563,45.776c2.524,20.076-12.924,43.458-33.714,51.795  c-23.357,9.366-41.835,2.307-59.599-17.53c-4.679-5.223-5.778-11.94-4.908-18.797c0.533-4.205,2.943-7.209,7.134-8.457  c4.219-1.255,7.907-0.069,10.707,3.291c3.167,3.801,6.391,7.568,9.392,11.491c4.33,5.663,14.75,8.833,21.618,6.392  c4.819-1.712,8.687-9.935,7.316-16.256c-1.638-7.551-6.584-16.227-18.305-16.635c-6.548-0.227-13.097-0.425-19.64-0.756  c-11.34-0.57-21.492-4.438-30.681-10.723c-14.047-9.607-21.861-30.423-5.648-47.6C108.724,81.608,115.418,72.362,122.617,63.558z"
   id="path60" />
<path
   fill-rule="evenodd"
   clip-rule="evenodd"
   fill="#3D3D3D"
   d="M425.96,203.403c-0.534,13.447-0.518,29.976-2.137,46.354  c-0.768,7.766-4.117,15.462-7.3,22.783c-2.939,6.76-8.926,10.933-16.628,11.836c-15.32,1.801-30.335,6.76-46.035,4.66  c-6.612-0.883-13.374-1.75-19.63-3.841c-10.052-3.361-14.412-12.146-11.449-21.93c3.868-12.767,12.541-20.809,26.215-23.616  c4.667-0.958,9.475-1.702,13.867-3.396c6.819-2.63,11.121-7.479,11.632-15.004c0.555-8.155,1.97-16.296,1.922-24.437  c-0.036-6.063-1.285-12.25-2.942-18.134c-1.836-6.52-4.673-7.899-11.636-7.892c-5.59,0.007-11.219,0.182-16.762-0.366  c-15.749-1.556-25.103-13.571-22.409-28.544c0.598-3.324,1.464-6.658,2.689-9.814c4.982-12.834,12.778-18.692,26.895-17.945  c13.978,0.74,28.093,2.12,41.729,5.045c16.452,3.527,26.262,14.543,28.02,30.854C423.802,166.722,424.537,183.534,425.96,203.403z"
   id="path62" />
<path
   fill-rule="evenodd"
   clip-rule="evenodd"
   fill="#3D3D3D"
   d="M677.27,193.042c-0.732-11.225-5.576-20.702-11.788-29.646  c-6.85-9.863-14.021-19.522-20.742-29.466c-5.952-8.803-11.498-17.915-12.634-28.674c-0.349-3.302-0.163-6.87,0.777-10.04  c1.82-6.147,5.984-10.498,12.734-11.955c6.947-1.5,12.667,0.929,17.199,5.808c2.425,2.609,4.211,5.787,6.172,8.779  c5.967,9.101,11.713,18.342,17.848,27.337c12.157,17.821,23.553,36.08,30.725,56.33c2.678,7.56,4.334,15.945,4.051,23.875  c-0.378,10.675-7.304,19.065-15.627,25.625c-10.257,8.084-20.937,15.728-31.88,22.933c-16.573,10.912-31.881,6.163-44.206-6.539  c-6.48-6.68-11.709-14.656-16.628-22.555c-11.897-19.108-26.005-36.615-40.478-53.897c-3.209-3.833-6.414-7.722-9.11-11.891  c-4.652-7.196-4.188-13.563,0.825-18.71c5.557-5.706,14.12-7.819,20.957-3.774c6.306,3.73,12.884,8.017,17.279,13.577  c12.677,16.03,24.098,32.979,36.479,49.235c3.985,5.234,8.801,10.337,14.337,13.913c8.947,5.779,17.239,2.552,20.736-7.25  C675.787,201.882,676.31,197.39,677.27,193.042z"
   id="path64" />
<path
   fill-rule="evenodd"
   clip-rule="evenodd"
   fill="#3D3D3D"
   d="M402.193,424.237c10.505,0.803,21.002,1.745,31.519,2.374  c13.238,0.791,25.614-2.237,35.939-10.308c14.984-11.712,30.474-9.658,46.188-2.528c4.977,2.258,9.514,5.685,13.74,9.156  c7.385,6.067,7.858,14.712,6.934,22.999c-0.687,6.154-2.347,12.689-5.492,17.998c-5.053,8.531-13.882,13.313-23.857,14.522  c-6.325,0.766-13.168,0.282-19.358-1.236c-11.112-2.726-21.875-6.764-32.854-10.026c-5.482-1.63-11.067-3.104-16.715-3.982  c-3.173-0.495-6.61,0.148-9.854,0.688c-2.328,0.387-4.507,1.548-6.801,2.203c-16.696,4.755-29.169,14.062-37.479,29.268  c-4.479,8.196-11.139,15.377-17.388,22.551c-4.741,5.445-11.061,8.888-18.805,8.728c-14.322-0.295-19.06-11.175-19.211-20.408  c-0.042-2.608-0.071-5.365,0.708-7.813c4.628-14.542,8.219-29.562,14.588-43.378c9.066-19.671,25.702-30.124,48.595-30.101  c3.193,0.003,6.387-0.001,9.58-0.002C402.177,424.708,402.185,424.471,402.193,424.237z"
   id="path66" />
<path
   fill-rule="evenodd"
   clip-rule="evenodd"
   fill="#3D3D3D"
   d="M483.104,245.729c43.051,1.629,77.212,13.934,102.733,43.757  c14.337,16.752,20.1,36.236,15.763,57.996c-1.478,7.419-4.375,14.248-9.758,19.801c-15.934,16.44-34.388,28.751-58.396,30.648  c-11.661,0.922-21.553-3.81-28.657-12.646c-5.673-7.058-4.57-17.232,1.571-25.001c5.273-6.671,12.759-10.007,20.598-12.944  c7.868-2.947,15.976-5.577,23.315-9.502c12.421-6.644,14.65-17.121,6.39-28.379c-10.441-14.23-25.427-21.512-43.002-23.177  c-9.773-0.927-19.748,0.274-29.63,0.217c-7.461-0.046-15.01,0.015-22.351-1.051c-6.394-0.93-11.897-4.409-16.091-9.395  c-8.253-9.811-4.883-22.587,7.745-25.746C464.231,247.585,475.65,246.817,483.104,245.729z"
   id="path68" />
<path
   fill-rule="evenodd"
   clip-rule="evenodd"
   fill="#3D3D3D"
   d="M429.778,15.607c15.395,0.096,36.438,7.441,53.887,22.329  c15.284,13.04,29.561,27.239,43.647,41.51c8.791,8.907,16.679,18.694,24.407,28.5c3.105,3.938,5.567,8.775,6.811,13.568  c2.688,10.367-6.018,18.635-17,16.817c-8.3-1.376-15.389-5.485-19.91-11.923c-10.951-15.6-26.011-27.499-38.626-41.571  c-8.396-9.364-17.768-17.679-28.978-23.991c-14.892-8.385-33.48-6.766-46.278,4.423c-1.176,1.028-2.232,2.213-3.183,3.442  c-2.668,3.452-3.594,6.2,0.365,10.18c3.688,3.708,6.61,8.89,7.915,13.896c3.266,12.546-8.118,22.886-20.786,18.712  c-12.934-4.261-23.97-11.79-31.31-23.237c-6.236-9.724-6.065-20.245-2.165-30.771C368.767,29.989,391.195,15.104,429.778,15.607z"
   id="path70" />
<path
   fill-rule="evenodd"
   clip-rule="evenodd"
   fill="#3D3D3D"
   d="M313.973,221.574c0.001,9.871,0.125,19.743-0.053,29.611  c-0.077,4.297-0.473,8.634-1.249,12.863c-1.398,7.633-6.418,12.441-12.916,12.941c-6.363,0.49-11.268-3.183-14.218-10.883  c-4.55-11.878-5.436-24.336-6.302-36.827c-0.608-8.754-1.761-17.473-2.691-26.206c-0.081-0.762-0.164-1.586-0.514-2.25  c-1.597-3.027-2.963-8.275-5.015-8.552c-4.769-0.643-9.141,2.506-11.563,6.81c-3.808,6.77-7.319,13.702-10.76,20.657  c-6.531,13.206-12.83,26.519-19.45,39.684c-1.421,2.827-3.367,5.691-5.806,7.709c-8.605,7.117-19.691,3.604-21.729-7.231  c-1.056-5.614-0.63-11.697,0.3-17.39c0.909-5.565,2.601-11.24,5.174-16.283c11.565-22.67,23.291-45.276,35.57-67.591  c4.004-7.276,9.263-14.123,14.994-20.256c12.282-13.144,29.106-12.09,40.208,2.038c13.383,17.029,17.168,36.863,17.349,57.587  c0.069,7.854-0.66,15.714-1.024,23.571C314.177,221.576,314.075,221.575,313.973,221.574z"
   id="path72" />
<path
   fill-rule="evenodd"
   clip-rule="evenodd"
   fill="#3D3D3D"
   d="M380.093,372.911c3.574-0.588,7.36-0.65,10.665-1.899  c3.927-1.483,4.562-4.811,1.785-7.088c-16.096-13.194-16.09-34.35-10.165-49.412c5.929-15.072,22.848-25.061,41.381-24.963  c12.613,0.066,24.325,3.315,34.591,10.621c12.101,8.608,16.694,25.691,10.208,37.569c-4.002,7.329-11.249,9.812-17.981,6.16  c-4.388-2.38-6.529-6.433-5.923-11.202c1.071-8.407-4.304-13.561-13.118-12.107c-6.201,1.021-11.316,4.233-14.961,9.239  c-2.76,3.79-2.251,8.427,2.164,11.43c5.556,3.78,11.649,6.907,17.763,9.823c8.294,3.953,16.997,7.126,25.211,11.218  c8.142,4.056,13.607,10.657,16.098,19.263c2.466,8.522-1.68,15.126-10.652,16.902c-8.819,1.746-17.662,1.016-25.901-2.174  c-7.967-3.086-14.604-1.244-21.16,2.974c-19.306,12.417-50.467,10.376-67.466-4.426c-6.016-5.238-5.285-12.419,1.592-16.648  C362.128,373.326,370.963,372.476,380.093,372.911z"
   id="path74" />
<path
   fill-rule="evenodd"
   clip-rule="evenodd"
   fill="#3D3D3D"
   d="M619.992,269.693c-0.065,8.079-8.85,13.77-16.827,10.934  c-4.195-1.49-8.43-4.077-11.451-7.234c-11.8-12.338-23.237-25.004-34.6-37.725c-28.063-31.418-56.097-62.859-83.965-94.438  c-13.673-15.495-26.96-31.305-40.38-47.006c-1.621-1.896-3.181-3.893-4.419-6.031c-3.097-5.348-2.623-10.542,1.041-14.114  c3.658-3.566,9.234-4.257,14.616-1.334c3.177,1.725,6.175,3.871,8.926,6.189c43.452,36.658,83.084,76.675,116.812,122.065  c11.705,15.753,25.253,30.223,37.468,45.642c4.68,5.908,8.051,12.793,11.855,19.323  C619.813,267.241,619.814,268.923,619.992,269.693z"
   id="path76" />
<path
   fill-rule="evenodd"
   clip-rule="evenodd"
   fill="#3D3D3D"
   d="M225.206,26.817c9.607-0.351,20.207,0.927,29.511,7.518  c26.186,18.547,24.542,52.981-3.446,71.032c-24.697,15.926-64.305,7.008-80.207-17.146c-11.168-16.965-1.474-47.748,19.899-55.832  C200.441,28.805,209.776,26.856,225.206,26.817z M227.877,75.778c2-0.396,4.786-0.556,7.241-1.511  c6.228-2.422,8.243-10.392,3.838-14.288c-6.509-5.757-19.911-6.867-27.399-2.38c-3.454,2.069-4.336,4.605-2.431,8.146  C212.946,72.844,219.396,75.372,227.877,75.778z"
   id="path78" />
<path
   fill-rule="evenodd"
   clip-rule="evenodd"
   fill="#3D3D3D"
   d="M261.36,357.165c21.302,0.234,39.063,2.526,54.411,12.633  c5.327,3.508,10.138,8.664,13.332,14.085c6.71,11.394,2.675,23.924-8.901,30.871c-9.203,5.521-19.466,7.878-30.154,8.069  c-25.106,0.45-49.71-3.531-73.986-9.187c-5.847-1.361-11.856-4.382-16.401-8.186c-10.797-9.037-9.865-23.636,1.331-32.731  c10.19-8.278,22.575-11.361,35.331-13.114C245.645,358.321,255.074,357.757,261.36,357.165z M216.828,388.197  c0.104,0.68,0.207,1.36,0.311,2.04c24.779,6.818,49.657,4.285,74.563,0.278c-20.897-3.979-41.872-6.851-63.182-5.153  C224.569,385.676,220.723,387.22,216.828,388.197z"
   id="path80" />
<path
   fill-rule="evenodd"
   clip-rule="evenodd"
   fill="#3D3D3D"
   d="M325.415,337.696c-14.955,1.231-28.964,2.432-42.982,3.529  c-15.196,1.188-30.338,2.024-44.688-4.692c-14.284-6.687-20.472-18.765-16.436-33.567c1.371-5.027,3.479-9.948,5.879-14.616  c5.384-10.475,13.146-19.255,21.908-27.266c1.324-1.21,2.441-2.793,3.178-4.406c2.761-6.043,7.982-8.941,13.662-7.345  c5.095,1.433,7.57,5.835,6.568,12.22c-1.786,11.367-2.625,22.697,0.813,33.925c0.766,2.502,1.616,5.02,2.792,7.357  c4.178,8.312,7.957,10.503,17.471,9.465c11.413-1.244,22.751-3.154,34.175-4.271c5.187-0.507,10.591-0.34,15.741,0.458  c12.714,1.973,20.38,11.753,19.214,24.144c-0.744,7.885-3.966,14.912-9.34,20.902c-3.494,3.896-8.734,4.797-13.017,2.578  c-4.103-2.127-6.107-6.69-5.044-11.487c1.203-5.428,0.315-6.562-5.567-6.912C327.993,337.607,326.23,337.696,325.415,337.696z"
   id="path82" />
<path
   fill-rule="evenodd"
   clip-rule="evenodd"
   fill="#3D3D3D"
   d="M582.449,416.295c30.202,1.418,59.304,3.691,88.056,9.178  c7.827,1.493,15.705,2.743,23.531,4.248c2.645,0.509,5.292,1.238,7.776,2.24c9.264,3.733,13.048,9.644,12.65,20.654  c-0.294,8.12-5.144,14.106-12.855,16.146c-7.844,2.073-16.459,3.651-24.407,2.75c-34.149-3.872-67.727-10.692-100.094-22.178  c-6.532-2.318-12.771-5.613-18.77-9.069c-4.985-2.872-7.762-7.535-6.311-13.361c1.44-5.782,5.994-8.66,11.817-9.306  C570.336,416.876,576.888,416.665,582.449,416.295z"
   id="path84" />
<path
   fill-rule="evenodd"
   clip-rule="evenodd"
   fill="#3D3D3D"
   d="M239.171,427.092c18.417,1.624,34.694,2.571,50.808,4.67  c9.255,1.205,18.254,4.254,27.351,6.54c1.215,0.306,2.354,0.949,3.48,1.524c11.271,5.762,12.253,18.741,1.034,24.605  c-6.938,3.625-15.198,5.667-23.102,6.654c-22.738,2.845-45.24-1.059-67.679-4.017c-11.986-1.58-23.833-4.235-35.666-6.739  c-3.353-0.71-6.657-2.257-9.599-4.017c-8.152-4.876-9.094-14.526-1.001-19.369c6.442-3.855,14.181-6.577,21.681-7.698  C217.924,427.535,229.662,427.639,239.171,427.092z"
   id="path86" />
<path
   fill-rule="evenodd"
   clip-rule="evenodd"
   fill="#3D3D3D"
   d="M462.144,236.139c-21.308,1.53-31.683-8.05-29.917-24.58  c1.324-12.399,3.362-24.735,5.403-37.05c1.341-8.095,6.209-13.76,14.365-16.397c6.978-2.256,13.708-1.845,19.098,3.528  c5.652,5.633,7.738,12.498,4.891,19.991c-1.514,3.987-4.375,7.48-6.3,11.349c-0.738,1.485-0.562,3.392-0.802,5.108  c1.823,0.108,3.903,0.813,5.418,0.206c3.507-1.406,6.619-3.717,10.112-5.166c4.923-2.041,9.928-4.652,15.107-5.207  c10.553-1.13,17.592,7.238,15.165,17.221c-2.411,9.924-8.102,17.614-17.484,22.625C485.099,234.226,471.837,235.727,462.144,236.139  z"
   id="path88" />
<path
   fill-rule="evenodd"
   clip-rule="evenodd"
   fill="#3D3D3D"
   d="M609.979,392.607c0.523-2.888,1.274-7.139,2.07-11.382  c1.334-7.11,2.737-14.207,4.036-21.321c1.209-6.612,6.062-10.271,12.931-9.522c12.376,1.35,24.749,2.743,37.118,4.153  c7.786,0.887,12.41,6.171,11.107,13.354c-1.924,10.609-4.169,21.167-6.54,31.691c-0.669,2.968-2,5.871-3.469,8.582  c-4.569,8.429-10.895,11.2-20.261,8.245c-10.005-3.158-19.84-6.851-29.651-10.55C611.894,403.811,609.855,399.439,609.979,392.607z"
   id="path90" />
<path
   fill-rule="evenodd"
   clip-rule="evenodd"
   fill="#3D3D3D"
   d="M616.929,303.639c0.064-18.57,16.396-29.617,35.574-23.611  c5.846,1.83,11.498,4.69,16.688,7.906c8.757,5.426,13.206,18.038,10.735,28.289c-2.42,10.055-10.95,17.383-22.161,19.04  C636.618,338.388,616.86,323.087,616.929,303.639z"
   id="path92" />
<path
   fill-rule="evenodd"
   clip-rule="evenodd"
   fill="#3D3D3D"
   d="M33.047,278.652c8.333,0.404,18.484,4.734,26.645,12.048  c8.232,7.378,10.183,17.492,6.833,27.73c-3.253,9.947-11.024,15.48-21.828,16.969c-23.339,3.217-43.815-15.523-39.971-36.639  C7.022,286.153,16.614,278.471,33.047,278.652z"
   id="path94" />
<path
   fill-rule="evenodd"
   clip-rule="evenodd"
   fill="#3D3D3D"
   d="M657.019,181.327c-0.171,5.647-4.718,8.899-9.309,6.704  c-3.299-1.579-6.569-4.039-8.714-6.899c-8.223-10.973-16.036-22.236-23.897-33.458c-3.305-4.715-6.674-9.433-9.421-14.452  c-2.917-5.333-2.368-9.288,0.937-11.814c4.22-3.229,8.403-1.947,12.408,0.518c1.604,0.988,3.293,2.011,4.527,3.372  c10.743,11.842,21.319,23.784,26.644,39.105c1.466,4.217,3.668,8.192,5.408,12.327C656.313,178.422,656.692,180.244,657.019,181.327  z"
   id="path96" />
<path
   fill-rule="evenodd"
   clip-rule="evenodd"
   fill="#3D3D3D"
   d="M758.361,440.019c7.972-0.054,15.695,7.29,15.866,15.084  c0.163,7.44-7.054,14.584-14.853,14.703c-9.099,0.139-17.34-7.402-17.293-15.823C742.121,446.717,749.865,440.076,758.361,440.019z"
   id="path98" />
<path
   fill-rule="evenodd"
   clip-rule="evenodd"
   fill="#3D3D3D"
   d="M146.578,469.861c-9.21,0.051-17.127-7.336-17.058-15.917  c0.057-7.19,7.949-13.884,16.317-13.837c8.034,0.045,15.57,7.366,15.653,15.206C161.569,462.93,154.508,469.819,146.578,469.861z"
   id="path100" />
<path
   fill-rule="evenodd"
   clip-rule="evenodd"
   fill="#3D3D3D"
   d="M496.626,333.059c2.76,2.006,6.104,3.578,8.139,6.124  c2.647,3.315,2.271,7.708-0.494,10.765c-4.477,4.947-9.382,9.64-14.669,13.766c-3.91,3.054-9.354,2.148-12.743-0.972  c-3.253-2.994-4.517-8.278-1.544-11.794c4.696-5.551,10.173-10.507,15.542-15.49c1.122-1.04,3.217-1.105,4.864-1.62  C496.022,333.578,496.324,333.318,496.626,333.059z"
   id="path102" />
<path
   fill-rule="evenodd"
   clip-rule="evenodd"
   fill="#3D3D3D"
   d="M519.839,332.652c-7.152-0.071-13.001-5.929-12.811-12.829  c0.19-6.957,6.358-12.534,13.836-12.511c7.101,0.022,13.361,5.261,13.416,11.224C534.342,325.12,526.565,332.72,519.839,332.652z"
   id="path104" />
<path
   fill-rule="evenodd"
   clip-rule="evenodd"
   fill="#3D3D3D"
   d="M790.35,534.056c6.198,0.91,13.152,1.793,20.045,3.008  c3.025,0.532,6.649,1.944,5.681,5.451c-0.527,1.909-4.002,4.21-6.255,4.323c-9.546,0.481-19.136,0.367-28.702,0.128  c-3.496-0.088-6.822-1.626-7.027-5.615c-0.208-3.994,2.928-5.587,6.426-6.231C783.478,534.574,786.525,534.451,790.35,534.056z"
   id="path106" />
<path
   fill-rule="evenodd"
   clip-rule="evenodd"
   fill="#3D3D3D"
   d="M182.103,547.175c-4.466,0-8.946,0.215-13.393-0.064  c-3.702-0.233-7.18-1.623-7.294-5.853c-0.108-3.975,3.132-5.482,6.61-6.098c10.619-1.877,20.979,0.187,31.214,2.549  c1.747,0.403,4.354,3.441,4.037,4.637c-0.481,1.812-3.05,4.155-4.959,4.367c-5.342,0.593-10.799,0.207-16.212,0.208  C182.104,547.006,182.104,547.09,182.103,547.175z"
   id="path108" />
<path
   fill-rule="evenodd"
   clip-rule="evenodd"
   fill="#3D3D3D"
   d="M554.901,484.253c-6.401-0.036-11.472-5.008-11.429-11.208  c0.044-6.181,5.464-11.487,11.83-11.582c6.826-0.103,12.381,4.79,12.328,10.86C567.574,478.605,561.512,484.29,554.901,484.253z"
   id="path110" />
<path
   fill-rule="evenodd"
   clip-rule="evenodd"
   fill="#3D3D3D"
   d="M740.795,228.362c-0.063-6.364,5.929-12.438,12.237-12.405  c6.209,0.033,11.442,4.731,11.343,10.182c-0.107,5.819-6.693,12.15-12.775,12.28C745.752,238.544,740.85,233.982,740.795,228.362z"
   id="path112" />
<path
   fill-rule="evenodd"
   clip-rule="evenodd"
   fill="#3D3D3D"
   d="M140.603,216.063c6.296,0.122,11.249,4.794,11.022,10.402  c-0.24,5.941-6.823,12.093-12.933,12.086c-5.799-0.007-10.621-4.701-10.613-10.328C128.088,221.942,134.27,215.939,140.603,216.063z  "
   id="path114" />
<path
   fill-rule="evenodd"
   clip-rule="evenodd"
   fill="#3D3D3D"
   d="M353.144,218.479c-5.73-0.041-10.391-4.472-10.416-9.904  c-0.029-6.122,5.26-11.525,11.236-11.479c5.818,0.045,10.366,4.654,10.341,10.481C364.278,213.615,359.253,218.523,353.144,218.479z  "
   id="path116" />
<path
   fill-rule="evenodd"
   clip-rule="evenodd"
   fill="#3D3D3D"
   d="M804.09,346.946c0.024-5.879,5.319-10.907,11.411-10.836  c5.734,0.066,10.192,4.563,10.122,10.21c-0.074,5.869-4.997,10.774-10.854,10.818C808.72,357.183,804.066,352.743,804.09,346.946z"
   id="path118" />
<path
   fill-rule="evenodd"
   clip-rule="evenodd"
   fill="#3D3D3D"
   d="M212.987,346.447c-0.043,5.934-5.227,10.9-11.292,10.821  c-5.611-0.074-10.314-4.633-10.354-10.037c-0.044-5.788,5.181-10.942,11.175-11.021C208.451,336.132,213.03,340.609,212.987,346.447  z"
   id="path120" />
<path
   fill-rule="evenodd"
   clip-rule="evenodd"
   fill="#A5A5A5"
   d="M835.631,53.927c4.42,1.387,9.063,2.225,12.999,4.306  c2.394,1.265,5.3,4.58,5.107,6.734c-0.272,3.057-2.461,7.083-5.117,8.595c-7.151,4.071-21.089,2.725-26.526-7.427  c-2.373-4.427-1.841-6.719,2.894-8.914C828.206,55.73,831.838,55.065,835.631,53.927z"
   id="path122" />
<path
   fill-rule="evenodd"
   clip-rule="evenodd"
   fill="#A5A5A5"
   d="M227.877,75.778c-8.481-0.406-14.932-2.935-18.75-10.034  c-1.906-3.541-1.023-6.077,2.431-8.146c7.488-4.487,20.89-3.376,27.399,2.38c4.405,3.896,2.39,11.866-3.838,14.288  C232.664,75.222,229.877,75.382,227.877,75.778z"
   id="path124" />
<path
   fill-rule="evenodd"
   clip-rule="evenodd"
   fill="#A5A5A5"
   d="M216.828,388.197c3.895-0.977,7.741-2.521,11.692-2.835  c21.31-1.697,42.285,1.174,63.182,5.153c-24.906,4.007-49.784,6.54-74.563-0.278C217.035,389.557,216.932,388.876,216.828,388.197z"
   id="path126" />
</svg>
